# xmcd
#
# Track frame offsets: 
#        150
#        18896
#        40280
#        60975
#        73057
#        88959
#        100270
#        113553
#        128068
#        146326
#        165971
#        183757
#        198197
#        216137
#        232412
#
# Disc length: 3474 seconds
#
# Revision: 0
# Processed by: cddbd v1.5.2PL0 Copyright (c) Steve Scherf et al.
# Submitted via: ExactAudioCopy v1.0b4
#
DISCID=c70d900f
DTITLE=Various Artist - St. Louis Blues Society presents 15 in 15
DYEAR=2015
DGENRE=Blues
TTITLE0=Marquise Knox - Will You Change Your Ways
TTITLE1=Roland Johnson - Ain't That Loving You
TTITLE2=Edwards and Leinwand - Tampa Style
TTITLE3=Miss Jubilee and The Humdingers - Give Me A Sign
TTITLE4=Aaron Griffin - One Day Baby
TTITLE5=Letter To Memphis - Oleatha Shuffle
TTITLE6=Country Bill Edwards - Homesick In St. Louie
TTITLE7=Rum Drum Ramblers - To Get Along
TTITLE8=Kingdom Brothers - Reap What You Sow
TTITLE9=The Bottlesnakes - Bottlesnake Blues
TTITLE10=Big Mike Aguirre - Long Time Coming
TTITLE11=Renee Smith - Let The Demons Out
TTITLE12=The Green McDonough Band - Bone To Pick
TTITLE13=St. Louis Social Club - Pike's Peak
TTITLE14=Kasimu Taylor Quartet - Laura Therina
EXTD=
EXTT0=
EXTT1=
EXTT2=
EXTT3=
EXTT4=
EXTT5=
EXTT6=
EXTT7=
EXTT8=
EXTT9=
EXTT10=
EXTT11=
EXTT12=
EXTT13=
EXTT14=
PLAYORDER=
